<?xml version="1.0" encoding="UTF-8"?>
<svg id="Livello_1" xmlns="http://www.w3.org/2000/svg" version="1.1" viewBox="0 0 800 277.8">
  <!-- Generator: Adobe Illustrator 29.4.0, SVG Export Plug-In . SVG Version: 2.1.0 Build 152)  -->
  <defs>
    <style>
      .st0 {
        fill: #fff;
      }
    </style>
  </defs>
  <g>
    <path class="st0" d="M124.5,24.4c-8.3,4.1-16.6,8.1-24.9,12.2h0c5.1,1.9,10.1,3.9,15.2,5.8,3.1,1.2,6.9,2.7,8.2,6.4,1.4,3.8-.7,7.2-2.5,10.1-2.8,4.3-5.5,8.7-8.3,13-9.8,15.4-19.7,30.8-29.6,46.2v-14.3h0c3.8-11.9,7.5-23.8,11-35.8,1-3.4,2-6.8,3-10.2.6-2,.2-3.3-1.8-4.2-5-2.5-10.1-5-15.1-7.5-5,2.5-10.1,5-15.1,7.5s-2.4,2.2-1.8,4.2c1,3.4,2,6.8,3,10.2,3.6,12,7.2,23.9,11,35.8h0v14.3c-9.9-15.4-19.7-30.8-29.6-46.2-2.8-4.3-5.5-8.7-8.3-13-1.8-2.9-3.9-6.3-2.5-10.1,1.4-3.7,5.1-5.2,8.2-6.4,5.1-2,10.1-3.9,15.2-5.8-8.3-4.1-16.6-8.1-24.9-12.2h0c2.6,4.3,5.2,8.7,7.8,13-4.3,1.6-8.6,3.3-12.9,4.9C20.8,28.2,11.8,14.1,2.8,0c25.6,9.1,51.2,18.2,76.9,27,25.7-8.8,51.3-17.9,76.9-27-9,14.1-18,28.2-27,42.3-4.3-1.7-8.6-3.3-12.9-4.9,2.6-4.3,5.2-8.7,7.8-13"/>
    <path class="st0" d="M597.7,45.8v12.7h68.1c1.4,0,2.6-1.1,2.6-2.4v-7.8c0-1.3-1.2-2.4-2.6-2.4h-68.1ZM580.5,87.9v-54h88.3c8.2,0,14.9,5,14.9,12.6v11.2c0,7.8-5.2,13.1-10.4,13.1l11.8,17.1h-19.2l-10.1-16.4h-57.9v16.4h-17.4Z"/>
    <path class="st0" d="M319.1,88.8h-90.6c-8.4,0-15.2-6.3-15.2-14.1v-27.2c0-7.8,6.8-14.1,15.2-14.1h90.6v15.2h-87.6c-1.5,0-2.7,1.1-2.7,2.5v20.1c0,1.4,1.2,2.5,2.7,2.5h87.6v15.2h0ZM439.4,33.5v41.3c0,7.8-6.8,14.1-15.2,14.1h-75.5c-8.4,0-15.2-6.3-15.2-14.1v-41.3h18.2v37.7c0,1.4,1.2,2.5,2.7,2.5h64.2c1.5,0,2.7-1.1,2.7-2.5v-37.7h18.2-.1ZM782.9,58.5v-13h-69.2c-1.5,0-2.7,1.1-2.7,2.5v10.5c0-.2,47.2,0,71.9,0M800,88.8h-17.1v-16.9h-71.7v16.9h-17.1l-.2-41.3c0-7.8,6.8-14.1,15.2-14.1h90.6c.2,0,.3,0,.3,0v55.4ZM470.6,58.6h70.7c1.5,0,2.7-1.1,2.7-2.5v-8c0-1.4-1.2-2.5-2.7-2.5h-70.7v13h0ZM544.3,33.5c11.2,0,15.2,5.2,15.2,12.9v11.4c0,7.8-3.4,14.1-15.2,14.1h-73.7v16.9h-17.1v-55.4h90.9,0Z"/>
  </g>
  <g>
    <g>
      <polygon class="st0" points="0 256 25 138.7 73.8 138.7 70.1 155.5 40.2 155.5 33.4 188.2 56.7 188.2 53.1 204.9 29.8 204.9 18.9 256 0 256"/>
      <polygon class="st0" points="57.7 256 82.6 138.7 101.4 138.7 76.4 256 57.7 256"/>
      <path class="st0" d="M122.9,191.5h7.5c6.5,0,10.7-3.9,12.2-11.7l2.9-13.7c.3-1.7.5-3,.5-4.2,0-4.2-2.2-6.4-6.7-6.4h-8.9l-7.5,36h0ZM90.2,256l25-117.3h27c14.8,0,22.8,7.5,22.8,20.8s-.3,5.5-1,8.5l-2.5,11.9c-4,19.3-13.9,28.3-32.9,28.3h-9.4l-10.1,47.8h-18.9Z"/>
    </g>
    <g>
      <polygon class="st0" points="196.4 256 217.7 155.5 198.5 155.5 202.1 138.7 259.5 138.7 255.8 155.5 236.5 155.5 215.2 256 196.4 256"/>
      <path class="st0" d="M284.3,230.6l13.6-64.2c.3-1.5.5-2.9.5-4.2,0-5.5-3-8.4-9.2-8.4s-8.5,3.5-10.1,10.6l-13.6,64.2c-.3,1.5-.5,2.8-.5,4,0,5.5,3.2,8.4,9.4,8.4s8.4-3.5,9.9-10.4M246.2,234.1c0-2.7.3-5.5,1-8.5l13.2-62c3.5-17.3,14.1-26.5,29.5-26.5s27.2,8.4,27.2,23.6-.3,5.7-1,8.7l-13.2,62c-3.9,17.6-13.6,26.3-29.5,26.3s-27.2-8.4-27.2-23.6"/>
      <path class="st0" d="M313.9,234.6c0-2.8.3-5.9,1-9l18.6-86.8h18.8l-19.3,90.2c-.3,1.5-.5,2.9-.5,4,0,5.4,3,8,9.2,8s8.5-3.4,9.9-10.2l19.6-92h18.1l-19.8,92.7c-3.7,17.6-13.4,26.3-29,26.3s-26.7-8.2-26.7-23.1"/>
      <path class="st0" d="M410.2,189h5.5c7.5,0,12.4-4.4,14.4-13.1l2-9c.5-1.8.7-3.7.7-5.4,0-4-2.3-6-7-6h-8.4l-7.2,33.5ZM377.1,256l25-117.3h27c14.6,0,22.6,6.9,22.6,20.1s-.3,5.7-1,9.1l-1.2,5.7c-2.9,14.1-7.9,21.3-17.4,23.8v.2c5.7,1.8,8.5,6.7,8.5,14.6s-.3,6.5-1.2,9.7l-4.4,20.6c-1.2,5.5-1.7,9-1.7,10.6s.2,1.7.3,3h-18.3c-.2-2-.3-3.5-.3-4.4,0-2.5.5-6,1.5-10.7l4.5-21.5c.7-2.9,1-5.2,1-7,0-5.2-2.3-6.7-8.9-6.7h-6.7l-10.7,50.3h-18.8.2Z"/>
    </g>
    <path class="st0" d="M509.8,116.9h5.1l-34.2,160.9h-5.1l34.2-160.9h0Z"/>
    <g>
      <path class="st0" d="M527.9,255.9l3.3-16c1.8-8.7,4.8-16,8.9-22.2,4-6.2,10.2-12.4,18.4-18.6,8.5-6.5,14.4-12,17.9-16.4,3.5-4.5,6-9.4,7.2-14.7.5-1.8.7-3.8.7-5.8,0-5.5-3-8.2-8.9-8.2s-8.9,3.5-10.4,10.4l-2.8,13.7h-17.7l3-14.4c3.8-17.5,13.5-26.4,29.2-26.4s26.4,8.2,26.4,22.7-.3,5.5-1.2,9.4c-3.2,14.5-12,27.1-31.9,42.5-13.2,10-17.4,15.5-19.2,23.6l-.8,3.8h35.1l-3.5,16.7h-53.7Z"/>
      <path class="st0" d="M596.8,234c0-2.7.3-5.5,1-8.5l13.2-61.8c3.5-17.2,14-26.4,29.4-26.4s27.1,8.4,27.1,23.6-.3,5.7-1,8.7l-13.2,61.8c-3.8,17.5-13.5,26.2-29.4,26.2s-27.1-8.4-27.1-23.6ZM634.7,230.5l13.5-64c.3-1.5.5-2.8.5-4.2,0-5.5-3-8.4-9.2-8.4s-8.5,3.5-10,10.5l-13.5,64c-.3,1.5-.5,2.8-.5,4,0,5.5,3.2,8.4,9.4,8.4s8.4-3.5,9.9-10.4h-.1Z"/>
      <path class="st0" d="M656.8,255.9l3.3-16c1.8-8.7,4.8-16,8.9-22.2,4-6.2,10.2-12.4,18.4-18.6,8.5-6.5,14.4-12,17.9-16.4,3.5-4.5,6-9.4,7.2-14.7.5-1.8.7-3.8.7-5.8,0-5.5-3-8.2-8.9-8.2s-8.9,3.5-10.4,10.4l-2.8,13.7h-17.7l3-14.4c3.8-17.5,13.5-26.4,29.2-26.4s26.4,8.2,26.4,22.7-.3,5.5-1.2,9.4c-3.2,14.5-12,27.1-31.9,42.5-13.2,10-17.4,15.5-19.2,23.6l-.8,3.8h35.1l-3.5,16.7h-53.7Z"/>
      <path class="st0" d="M723,234.4c0-2.9.3-5.9,1-9.3l1.5-6.6h17.8l-2,9.7c-.3,1.5-.5,3.1-.5,4.2,0,5.6,3.2,8.3,9.5,8.3s8.7-3.6,10.2-10.5l5.6-26.1c.5-1.9.7-3.6.7-5.4,0-4.9-3.4-7.8-8.1-7.8s-10.3,4.2-12.2,12.7h-17.8l17.8-66.3h49.4l-3.7,17h-31.9l-8.1,28.2c5.1-5.8,10.5-8.7,16.3-8.7,11.4,0,18.2,7.3,18.2,19.7s-.5,6.8-1.4,11l-5.8,26.5c-3.9,17.5-13.9,26.8-29.5,26.8s-26.8-8.5-26.8-23.2l-.2-.2Z"/>
    </g>
  </g>
</svg>